# xmcd
#
# Track frame offsets:
#	150
#	16280
#	35142
#	54262
#	76642
#	99555
#	113467
#	133827
#	152340
#	170077
#	189402
#	193050
#	252910
#
# Disc length: 3656 seconds
#
# Revision: 0
# Processed by: cddbd v1.5.2PL0 Copyright (c) Steve Scherf et al.
# Submitted via: EasyCDDAExtractor 11.0.3.1
#
DISCID=9e0e460d
DTITLE=Darius Rucker - Back To Then
DYEAR=2002
DGENRE=R&B
TTITLE0=Wild One
TTITLE1=Exodus
TTITLE2=Sometimes I Wonder
TTITLE3=Back To Then
TTITLE4=This Is My World
TTITLE5=I'm Glad You're Mine
TTITLE6=Butterfly
TTITLE7=Hold On
TTITLE8=Ten Years
TTITLE9=One More Night
TTITLE10=Amazing Grace (Interlude)
TTITLE11=Somewhere
TTITLE12=Sleeping In My Bed
EXTD=
EXTT0=
EXTT1=
EXTT2=
EXTT3=
EXTT4=
EXTT5=
EXTT6=
EXTT7=
EXTT8=
EXTT9=
EXTT10=
EXTT11=
EXTT12=
PLAYORDER=
